Mirza-Bold - Kerning, Without Production Names.ufo
<glyph name="verseComma-ar" format="1">
  <advance width="807"/>
  <unicode hex="060E"/>
  <outline>
    <contour>
      <point x="767" y="120"/>
      <point x="740" y="146"/>
      <point x="707" y="146" type="curve" smooth="yes"/>
      <point x="694" y="146"/>
      <point x="681" y="142"/>
      <point x="672" y="135" type="curve"/>
      <point x="645" y="167"/>
      <point x="630" y="193"/>
      <point x="622" y="209" type="curve"/>
      <point x="633" y="214"/>
      <point x="644" y="222"/>
      <point x="651" y="235" type="curve"/>
      <point x="658" y="248"/>
      <point x="658" y="269"/>
      <point x="650" y="284" type="curve" smooth="yes"/>
      <point x="631" y="313"/>
      <point x="640" y="327"/>
      <point x="661" y="345" type="curve"/>
      <point x="626" y="356"/>
      <point x="597" y="355"/>
      <point x="580" y="338" type="curve"/>
      <point x="567" y="327"/>
      <point x="560" y="307"/>
      <point x="560" y="284" type="curve"/>
      <point x="536" y="296"/>
      <point x="504" y="300"/>
      <point x="451" y="291" type="curve" smooth="yes"/>
      <point x="394" y="283"/>
      <point x="374" y="290"/>
      <point x="378" y="325" type="curve"/>
      <point x="353" y="318"/>
      <point x="330" y="303"/>
      <point x="327" y="278" type="curve" smooth="yes"/>
      <point x="326" y="263"/>
      <point x="328" y="248"/>
      <point x="341" y="235" type="curve"/>
      <point x="316" y="211"/>
      <point x="264" y="131"/>
      <point x="253" y="118" type="curve"/>
      <point x="216" y="70"/>
      <point x="178" y="49"/>
      <point x="155" y="48" type="curve"/>
      <point x="146" y="46"/>
      <point x="139" y="48"/>
      <point x="133" y="49" type="curve"/>
      <point x="150" y="59"/>
      <point x="163" y="80"/>
      <point x="163" y="101" type="curve" smooth="yes"/>
      <point x="163" y="135"/>
      <point x="137" y="162"/>
      <point x="105" y="162" type="curve" smooth="yes"/>
      <point x="67" y="162"/>
      <point x="44" y="129"/>
      <point x="40" y="92" type="curve"/>
      <point x="40" y="33"/>
      <point x="90" y="-4"/>
      <point x="148" y="-4" type="curve" smooth="yes"/>
      <point x="216" y="-4"/>
      <point x="262" y="42"/>
      <point x="314" y="99" type="curve" smooth="yes"/>
      <point x="363" y="154"/>
      <point x="416" y="220"/>
      <point x="480" y="220" type="curve" smooth="yes"/>
      <point x="535" y="225"/>
      <point x="567" y="187"/>
      <point x="604" y="145" type="curve"/>
      <point x="598" y="138"/>
      <point x="589" y="125"/>
      <point x="580" y="114" type="curve"/>
      <point x="571" y="125"/>
      <point x="557" y="140"/>
      <point x="532" y="152" type="curve"/>
      <point x="521" y="186"/>
      <point x="499" y="197"/>
      <point x="460" y="197" type="curve"/>
      <point x="464" y="184"/>
      <point x="453" y="167"/>
      <point x="438" y="160" type="curve"/>
      <point x="413" y="142"/>
      <point x="382" y="120"/>
      <point x="382" y="79" type="curve" smooth="yes"/>
      <point x="382" y="31"/>
      <point x="418" y="-2"/>
      <point x="471" y="-2" type="curve" smooth="yes"/>
      <point x="507" y="-2"/>
      <point x="546" y="11"/>
      <point x="580" y="36" type="curve"/>
      <point x="619" y="2"/>
      <point x="666" y="-9"/>
      <point x="708" y="9" type="curve" smooth="yes"/>
      <point x="744" y="22"/>
      <point x="767" y="55"/>
      <point x="767" y="87" type="curve" smooth="yes"/>
    </contour>
    <contour>
      <point x="526" y="64"/>
      <point x="508" y="55"/>
      <point x="488" y="53" type="curve" smooth="yes"/>
      <point x="470" y="52"/>
      <point x="429" y="59"/>
      <point x="436" y="91" type="curve"/>
      <point x="440" y="110"/>
      <point x="464" y="112"/>
      <point x="471" y="112" type="curve" smooth="yes"/>
      <point x="499" y="112"/>
      <point x="526" y="92"/>
      <point x="543" y="77" type="curve"/>
    </contour>
    <contour>
      <point x="647" y="48"/>
      <point x="629" y="57"/>
      <point x="615" y="70" type="curve"/>
      <point x="623" y="80"/>
      <point x="633" y="92"/>
      <point x="642" y="103" type="curve"/>
      <point x="644" y="101"/>
      <point x="647" y="98"/>
      <point x="650" y="97" type="curve"/>
      <point x="647" y="86"/>
      <point x="647" y="64"/>
      <point x="664" y="46" type="curve"/>
    </contour>
  </outline>
</glyph>
<glyph name="semicolon-ar" format="1">
  <advance width="210"/>
  <unicode hex="061B"/>
  <outline>
    <contour>
      <point x="71" y="132"/>
      <point x="43" y="104"/>
      <point x="15" y="70" type="curve"/>
      <point x="49" y="42"/>
      <point x="77" y="14"/>
      <point x="105" y="-20" type="curve"/>
      <point x="139" y="8"/>
      <point x="167" y="36"/>
      <point x="195" y="70" type="curve"/>
      <point x="161" y="98"/>
      <point x="133" y="126"/>
      <point x="105" y="160" type="curve"/>
    </contour>
    <contour>
      <point x="82" y="424"/>
      <point x="35" y="342"/>
      <point x="27" y="251" type="curve"/>
      <point x="59" y="218" type="line"/>
      <point x="99" y="218"/>
      <point x="144" y="231"/>
      <point x="177" y="252" type="curve"/>
      <point x="165" y="279"/>
      <point x="159" y="311"/>
      <point x="159" y="348" type="curve" smooth="yes"/>
      <point x="159" y="388"/>
      <point x="172" y="427"/>
      <point x="195" y="454" type="curve"/>
      <point x="163" y="488" type="line"/>
    </contour>
  </outline>
</glyph>
<glyph name="alef-ar" format="1">
  <advance width="215"/>
  <unicode hex="0627"/>
  <outline>
    <contour>
      <point x="40" y="509"/>
      <point x="40" y="453"/>
      <point x="51" y="347" type="curve" smooth="yes"/>
      <point x="58" y="280"/>
      <point x="63" y="242"/>
      <point x="68" y="207" type="curve" smooth="yes"/>
      <point x="72" y="177"/>
      <point x="75" y="168"/>
      <point x="78" y="134" type="curve" smooth="yes"/>
      <point x="84" y="67"/>
      <point x="79" y="0"/>
      <point x="79" y="0" type="curve"/>
      <point x="128" y="0" type="line"/>
      <point x="128" y="0"/>
      <point x="139" y="24"/>
      <point x="149" y="71" type="curve" smooth="yes"/>
      <point x="165" y="149"/>
      <point x="173" y="268"/>
      <point x="155" y="425" type="curve" smooth="yes"/>
      <point x="154" y="432"/>
      <point x="151" y="464"/>
      <point x="150" y="475" type="curve" smooth="yes"/>
      <point x="145" y="533"/>
      <point x="145" y="608"/>
      <point x="145" y="608" type="curve" smooth="yes"/>
      <point x="105" y="608" type="line"/>
      <point x="92" y="596"/>
      <point x="64" y="556"/>
      <point x="40" y="509" type="curve"/>
    </contour>
    <contour>
      <point x="113" y="633" type="move" name="top"/>
    </contour>
    <contour>
      <point x="103" y="-35" type="move" name="bottom"/>
    </contour>
  </outline>
</glyph>
<glyph name="fathaHorizont-ar" format="1">
  <advance width="0"/>
  <unicode hex="0659"/>
  <outline>
    <contour>
      <point x="78" y="748"/>
      <point x="-45" y="746"/>
      <point x="-91" y="738" type="curve"/>
      <point x="-100" y="728"/>
      <point x="-115" y="708"/>
      <point x="-119" y="698" type="curve"/>
      <point x="-70" y="700"/>
      <point x="49" y="707"/>
      <point x="93" y="705" type="curve"/>
      <point x="105" y="720"/>
      <point x="109" y="725"/>
      <point x="119" y="744" type="curve"/>
    </contour>
    <contour>
      <point x="0" y="746" type="move" name="top"/>
    </contour>
    <contour>
      <point x="0" y="678" type="move" name="_top"/>
    </contour>
  </outline>
</glyph>
<glyph name="eight-ar" format="1">
  <advance width="483"/>
  <unicode hex="0668"/>
  <outline>
    <contour>
      <point x="60" y="84"/>
      <point x="73" y="49"/>
      <point x="97" y="1" type="curve"/>
      <point x="124" y="44"/>
      <point x="149" y="87"/>
      <point x="171" y="132" type="curve" smooth="yes"/>
      <point x="186" y="161"/>
      <point x="200" y="189"/>
      <point x="212" y="217" type="curve" smooth="yes"/>
      <point x="227" y="251"/>
      <point x="239" y="284"/>
      <point x="247" y="314" type="curve"/>
      <point x="255" y="283"/>
      <point x="267" y="249"/>
      <point x="282" y="214" type="curve" smooth="yes"/>
      <point x="293" y="188"/>
      <point x="305" y="161"/>
      <point x="319" y="134" type="curve" smooth="yes"/>
      <point x="342" y="90"/>
      <point x="368" y="46"/>
      <point x="397" y="0" type="curve"/>
      <point x="418" y="43"/>
      <point x="431" y="78"/>
      <point x="443" y="127" type="curve"/>
      <point x="378" y="222"/>
      <point x="328" y="321"/>
      <point x="302" y="416" type="curve" smooth="yes"/>
      <point x="286" y="473"/>
      <point x="281" y="512"/>
      <point x="277" y="580" type="curve"/>
      <point x="218" y="580" type="line"/>
      <point x="213" y="515"/>
      <point x="208" y="466"/>
      <point x="191" y="412" type="curve" smooth="yes"/>
      <point x="162" y="314"/>
      <point x="116" y="221"/>
      <point x="50" y="127" type="curve"/>
    </contour>
  </outline>
</glyph>
<glyph name="maddalong-ar" format="1">
  <advance width="0"/>
  <unicode hex="06E4"/>
  <outline>
    <contour>
      <point x="93" y="769"/>
      <point x="60" y="751"/>
      <point x="29" y="751" type="curve" smooth="yes"/>
      <point x="11" y="751"/>
      <point x="-6" y="756"/>
      <point x="-18" y="759" type="curve" smooth="yes"/>
      <point x="-30" y="763"/>
      <point x="-41" y="766"/>
      <point x="-50" y="766" type="curve" smooth="yes"/>
      <point x="-88" y="766"/>
      <point x="-94" y="716"/>
      <point x="-94" y="716" type="curve"/>
      <point x="-91" y="711"/>
      <point x="-81" y="703"/>
      <point x="-78" y="702" type="curve"/>
      <point x="-78" y="702"/>
      <point x="-70" y="720"/>
      <point x="-53" y="720" type="curve" smooth="yes"/>
      <point x="-49" y="720"/>
      <point x="-44" y="719"/>
      <point x="-37" y="718" type="curve" smooth="yes"/>
      <point x="-27" y="715"/>
      <point x="-15" y="712"/>
      <point x="1" y="712" type="curve" smooth="yes"/>
      <point x="29" y="712"/>
      <point x="50" y="721"/>
      <point x="63" y="729" type="curve" smooth="yes"/>
      <point x="77" y="738"/>
      <point x="83" y="745"/>
      <point x="84" y="746" type="curve" smooth="yes"/>
      <point x="86" y="748"/>
      <point x="91" y="761"/>
      <point x="93" y="769" type="curve"/>
    </contour>
    <contour>
      <point x="-1" y="769" type="move" name="top"/>
    </contour>
    <contour>
      <point x="-1" y="682" type="move" name="_top"/>
    </contour>
  </outline>
</glyph>
<glyph name="zero-persian" format="1">
  <advance width="267"/>
  <unicode hex="06F0"/>
  <outline>
    <contour>
      <point x="50" y="215" type="line"/>
      <point x="140" y="127" type="line"/>
      <point x="227" y="215" type="line"/>
      <point x="140" y="304" type="line"/>
    </contour>
  </outline>
</glyph>
<glyph name="rehLoop-ar" format="1">
  <advance width="477"/>
  <unicode hex="08AA"/>
  <outline>
    <contour>
      <point x="316" y="255"/>
      <point x="292" y="219"/>
      <point x="269" y="181" type="curve"/>
      <point x="269" y="181"/>
      <point x="289" y="168"/>
      <point x="314" y="137" type="curve" smooth="yes"/>
      <point x="332" y="115"/>
      <point x="349" y="87"/>
      <point x="349" y="54" type="curve" smooth="yes"/>
      <point x="349" y="11"/>
      <point x="322" y="-19"/>
      <point x="279" y="-49" type="curve"/>
      <point x="274" y="-39"/>
      <point x="243" y="37"/>
      <point x="157" y="37" type="curve" smooth="yes"/>
      <point x="76" y="37"/>
      <point x="40" y="-35"/>
      <point x="40" y="-80" type="curve" smooth="yes"/>
      <point x="40" y="-123"/>
      <point x="56" y="-154"/>
      <point x="80" y="-175" type="curve" smooth="yes"/>
      <point x="109" y="-201"/>
      <point x="149" y="-212"/>
      <point x="186" y="-212" type="curve" smooth="yes"/>
      <point x="212" y="-213"/>
      <point x="236" y="-208"/>
      <point x="253" y="-199" type="curve"/>
      <point x="257" y="-217"/>
      <point x="260" y="-232"/>
      <point x="264" y="-261" type="curve"/>
      <point x="325" y="-207" type="line"/>
      <point x="322" y="-197"/>
      <point x="320" y="-184"/>
      <point x="317" y="-173" type="curve"/>
      <point x="339" y="-156"/>
      <point x="383" y="-125"/>
      <point x="407" y="-49" type="curve" smooth="yes"/>
      <point x="424" y="3"/>
      <point x="427" y="53"/>
      <point x="427" y="81" type="curve" smooth="yes"/>
      <point x="427" y="162"/>
      <point x="401" y="216"/>
      <point x="375" y="252" type="curve" smooth="yes"/>
      <point x="368" y="263"/>
      <point x="353" y="279"/>
      <point x="343" y="288" type="curve"/>
    </contour>
    <contour>
      <point x="212" y="-89"/>
      <point x="188" y="-99"/>
      <point x="177" y="-101" type="curve" smooth="yes"/>
      <point x="107" y="-117"/>
      <point x="94" y="-87"/>
      <point x="97" y="-67" type="curve" smooth="yes"/>
      <point x="100" y="-50"/>
      <point x="118" y="-38"/>
      <point x="139" y="-38" type="curve" smooth="yes"/>
      <point x="169" y="-38"/>
      <point x="195" y="-55"/>
      <point x="215" y="-88" type="curve"/>
    </contour>
    <contour>
      <point x="279" y="329" type="move" name="top"/>
    </contour>
    <contour>
      <point x="186" y="-282" type="move" name="bottom"/>
    </contour>
  </outline>
</glyph>
<glyph name="whiteRoundedCornersSquare" format="1">
  <advance width="433"/>
  <unicode hex="25A2"/>
  <outline>
    <contour>
      <point x="50" y="20"/>
      <point x="71" y="-1"/>
      <point x="97" y="-1" type="curve" smooth="yes"/>
      <point x="337" y="-1" type="line" smooth="yes"/>
      <point x="362" y="-1"/>
      <point x="383" y="20"/>
      <point x="383" y="46" type="curve" smooth="yes"/>
      <point x="383" y="286" type="line" smooth="yes"/>
      <point x="383" y="311"/>
      <point x="362" y="332"/>
      <point x="337" y="332" type="curve" smooth="yes"/>
      <point x="97" y="332" type="line" smooth="yes"/>
      <point x="71" y="332"/>
      <point x="50" y="311"/>
      <point x="50" y="286" type="curve" smooth="yes"/>
      <point x="50" y="46" type="line" smooth="yes"/>
    </contour>
    <contour>
      <point x="110" y="250" type="line" smooth="yes"/>
      <point x="110" y="262"/>
      <point x="120" y="272"/>
      <point x="132" y="272" type="curve" smooth="yes"/>
      <point x="301" y="272" type="line" smooth="yes"/>
      <point x="313" y="272"/>
      <point x="323" y="262"/>
      <point x="323" y="250" type="curve" smooth="yes"/>
      <point x="323" y="81" type="line" smooth="yes"/>
      <point x="323" y="69"/>
      <point x="313" y="59"/>
      <point x="301" y="59" type="curve" smooth="yes"/>
      <point x="132" y="59" type="line" smooth="yes"/>
      <point x="120" y="59"/>
      <point x="110" y="69"/>
      <point x="110" y="81" type="curve" smooth="yes"/>
    </contour>
  </outline>
</glyph>
<glyph name="blackInWhiteDiamond" format="1">
  <advance width="688"/>
  <unicode hex="25C8"/>
  <outline>
    <contour>
      <point x="638" y="73" type="line"/>
      <point x="343" y="366" type="line"/>
      <point x="50" y="72" type="line"/>
      <point x="344" y="-222" type="line"/>
    </contour>
    <contour>
      <point x="344" y="261" type="line"/>
      <point x="532" y="73" type="line"/>
      <point x="344" y="-116" type="line"/>
      <point x="155" y="73" type="line"/>
    </contour>
    <contour>
      <point x="477" y="73" type="line"/>
      <point x="344" y="206" type="line"/>
      <point x="210" y="73" type="line"/>
      <point x="344" y="-61" type="line"/>
    </contour>
  </outline>
</glyph>
<glyph name="twodotshorizontalbelow-ar" format="1">
  <advance width="0"/>
  <unicode hex="FBB5"/>
  <outline>
    <contour>
      <point x="43" y="-179"/>
      <point x="19" y="-204"/>
      <point x="0" y="-222" type="curve"/>
      <point x="-14" y="-202"/>
      <point x="-36" y="-182"/>
      <point x="-60" y="-169" type="curve"/>
      <point x="-69" y="-181"/>
      <point x="-106" y="-219"/>
      <point x="-124" y="-234" type="curve"/>
      <point x="-95" y="-255"/>
      <point x="-71" y="-282"/>
      <point x="-54" y="-302" type="curve"/>
      <point x="-37" y="-288"/>
      <point x="-11" y="-262"/>
      <point x="3" y="-247" type="curve"/>
      <point x="24" y="-265"/>
      <point x="43" y="-286"/>
      <point x="56" y="-302" type="curve"/>
      <point x="78" y="-286"/>
      <point x="111" y="-250"/>
      <point x="119" y="-238" type="curve"/>
      <point x="108" y="-214"/>
      <point x="81" y="-186"/>
      <point x="50" y="-169" type="curve"/>
    </contour>
    <contour>
      <point x="-3" y="-131" type="move" name="_bottom"/>
    </contour>
    <contour>
      <point x="-3" y="-294" type="move" name="bottom"/>
    </contour>
  </outline>
</glyph>
<glyph name="threedotsupbelow-ar" format="1">
  <advance width="0"/>
  <unicode hex="FBB7"/>
  <outline>
    <contour>
      <point x="39" y="-200"/>
      <point x="15" y="-225"/>
      <point x="-4" y="-244" type="curve"/>
      <point x="-18" y="-223"/>
      <point x="-41" y="-203"/>
      <point x="-64" y="-191" type="curve"/>
      <point x="-73" y="-203"/>
      <point x="-110" y="-241"/>
      <point x="-128" y="-256" type="curve"/>
      <point x="-100" y="-277"/>
      <point x="-75" y="-303"/>
      <point x="-59" y="-323" type="curve"/>
      <point x="-41" y="-310"/>
      <point x="-15" y="-284"/>
      <point x="-2" y="-268" type="curve"/>
      <point x="19" y="-286"/>
      <point x="38" y="-307"/>
      <point x="51" y="-323" type="curve"/>
      <point x="73" y="-307"/>
      <point x="106" y="-271"/>
      <point x="115" y="-260" type="curve"/>
      <point x="104" y="-236"/>
      <point x="76" y="-207"/>
      <point x="46" y="-191" type="curve"/>
    </contour>
    <contour>
      <point x="18" y="-176"/>
      <point x="51" y="-141"/>
      <point x="60" y="-129" type="curve"/>
      <point x="49" y="-104"/>
      <point x="21" y="-75"/>
      <point x="-9" y="-60" type="curve"/>
      <point x="-18" y="-72"/>
      <point x="-55" y="-110"/>
      <point x="-73" y="-125" type="curve"/>
      <point x="-45" y="-146"/>
      <point x="-20" y="-172"/>
      <point x="-4" y="-193" type="curve"/>
    </contour>
    <contour>
      <point x="-7" y="-23" type="move" name="_bottom"/>
    </contour>
    <contour>
      <point x="-7" y="-324" type="move" name="bottom"/>
    </contour>
  </outline>
</glyph>
<glyph name="threedotsdownbelow-ar" format="1">
  <advance width="0"/>
  <unicode hex="FBB9"/>
  <outline>
    <contour>
      <point x="105" y="-8"/>
      <point x="78" y="21"/>
      <point x="47" y="36" type="curve"/>
      <point x="40" y="27"/>
      <point x="16" y="1"/>
      <point x="-3" y="-17" type="curve"/>
      <point x="-17" y="4"/>
      <point x="-39" y="24"/>
      <point x="-63" y="36" type="curve"/>
      <point x="-72" y="24"/>
      <point x="-109" y="-14"/>
      <point x="-127" y="-29" type="curve"/>
      <point x="-98" y="-49"/>
      <point x="-74" y="-76"/>
      <point x="-57" y="-97" type="curve"/>
      <point x="-40" y="-83"/>
      <point x="-14" y="-57"/>
      <point x="0" y="-41" type="curve"/>
      <point x="21" y="-60"/>
      <point x="39" y="-80"/>
      <point x="53" y="-97" type="curve"/>
      <point x="75" y="-80"/>
      <point x="108" y="-44"/>
      <point x="116" y="-33" type="curve"/>
    </contour>
    <contour>
      <point x="54" y="-138"/>
      <point x="26" y="-109"/>
      <point x="-4" y="-93" type="curve"/>
      <point x="-13" y="-105"/>
      <point x="-50" y="-143"/>
      <point x="-69" y="-158" type="curve"/>
      <point x="-40" y="-179"/>
      <point x="-15" y="-205"/>
      <point x="1" y="-226" type="curve"/>
      <point x="24" y="-210"/>
      <point x="57" y="-174"/>
      <point x="65" y="-162" type="curve"/>
    </contour>
    <contour>
      <point x="-6" y="72" type="move" name="_bottom"/>
    </contour>
    <contour>
      <point x="-6" y="-228" type="move" name="bottom"/>
    </contour>
  </outline>
</glyph>
<glyph name="seen_meem-ar.init" format="1">
  <advance width="743"/>
  <unicode hex="FCB0"/>
  <outline>
    <contour>
      <point x="611" y="399"/>
      <point x="595" y="377"/>
      <point x="575" y="347" type="curve"/>
      <point x="624" y="278" type="line"/>
      <point x="612" y="258"/>
      <point x="600" y="248"/>
      <point x="571" y="248" type="curve" smooth="yes"/>
      <point x="558" y="248"/>
      <point x="536" y="250"/>
      <point x="524" y="263" type="curve"/>
      <point x="512" y="275"/>
      <point x="509" y="297"/>
      <point x="510" y="317" type="curve"/>
      <point x="511" y="326"/>
      <point x="513" y="343"/>
      <point x="514" y="353" type="curve"/>
      <point x="463" y="334" type="line"/>
      <point x="463" y="326"/>
      <point x="462" y="319"/>
      <point x="461" y="312" type="curve" smooth="yes"/>
      <point x="454" y="275"/>
      <point x="433" y="246"/>
      <point x="395" y="246" type="curve" smooth="yes"/>
      <point x="358" y="246"/>
      <point x="343" y="266"/>
      <point x="327" y="286" type="curve" smooth="yes"/>
      <point x="310" y="309"/>
      <point x="293" y="332"/>
      <point x="246" y="332" type="curve" smooth="yes"/>
      <point x="227" y="332"/>
      <point x="206" y="326"/>
      <point x="185" y="314" type="curve" smooth="yes"/>
      <point x="163" y="301"/>
      <point x="140" y="279"/>
      <point x="125" y="258" type="curve" smooth="yes"/>
      <point x="115" y="244"/>
      <point x="102" y="221"/>
      <point x="96" y="205" type="curve" smooth="yes"/>
      <point x="89" y="186"/>
      <point x="85" y="161"/>
      <point x="86" y="137" type="curve"/>
      <point x="76" y="135"/>
      <point x="34" y="138"/>
      <point x="19" y="139" type="curve"/>
      <point x="-10" y="139" type="line" smooth="yes"/>
      <point x="-45" y="139"/>
      <point x="-80" y="116"/>
      <point x="-80" y="70" type="curve" smooth="yes"/>
      <point x="-80" y="26"/>
      <point x="-48" y="0"/>
      <point x="-10" y="0" type="curve" smooth="yes"/>
      <point x="15" y="0" type="line" smooth="yes"/>
      <point x="63" y="0"/>
      <point x="100" y="10"/>
      <point x="139" y="10" type="curve" smooth="yes"/>
      <point x="167" y="10"/>
      <point x="204" y="1"/>
      <point x="253" y="-27" type="curve"/>
      <point x="273" y="32"/>
      <point x="278" y="76"/>
      <point x="278" y="123" type="curve"/>
      <point x="219" y="138"/>
      <point x="168" y="155"/>
      <point x="168" y="184" type="curve" smooth="yes"/>
      <point x="168" y="206"/>
      <point x="199" y="236"/>
      <point x="240" y="236" type="curve" smooth="yes"/>
      <point x="280" y="236"/>
      <point x="300" y="208"/>
      <point x="319" y="180" type="curve" smooth="yes"/>
      <point x="339" y="149"/>
      <point x="359" y="117"/>
      <point x="403" y="117" type="curve" smooth="yes"/>
      <point x="455" y="117"/>
      <point x="473" y="151"/>
      <point x="481" y="166" type="curve"/>
      <point x="489" y="151"/>
      <point x="518" y="123"/>
      <point x="566" y="123" type="curve" smooth="yes"/>
      <point x="610" y="123"/>
      <point x="646" y="147"/>
      <point x="669" y="190" type="curve" smooth="yes"/>
      <point x="689" y="228"/>
      <point x="693" y="267"/>
      <point x="693" y="289" type="curve" smooth="yes"/>
      <point x="693" y="331"/>
      <point x="678" y="380"/>
      <point x="635" y="425" type="curve"/>
    </contour>
    <contour>
      <point x="367" y="0" type="move" name="caret_1"/>
    </contour>
    <contour>
      <point x="483" y="70" type="move" name="bottom_1"/>
    </contour>
    <contour>
      <point x="481" y="401" type="move" name="top_1"/>
    </contour>
    <contour>
      <point x="120" y="339" type="move" name="top_2"/>
    </contour>
    <contour>
      <point x="174" y="-49" type="move" name="bottom_2"/>
    </contour>
  </outline>
</glyph>
<glyph name="ain_meem-ar.init" format="1">
  <advance width="566"/>
  <unicode hex="FCBB"/>
  <outline>
    <contour>
      <point x="461" y="364"/>
      <point x="369" y="341"/>
      <point x="335" y="330" type="curve"/>
      <point x="309" y="342"/>
      <point x="273" y="370"/>
      <point x="263" y="408" type="curve"/>
      <point x="277" y="416"/>
      <point x="309" y="432"/>
      <point x="357" y="432" type="curve" smooth="yes"/>
      <point x="383" y="432"/>
      <point x="406" y="427"/>
      <point x="435" y="417" type="curve"/>
      <point x="481" y="459" type="line"/>
      <point x="441" y="519"/>
      <point x="397" y="538"/>
      <point x="353" y="538" type="curve" smooth="yes"/>
      <point x="305" y="538"/>
      <point x="265" y="516"/>
      <point x="233" y="486" type="curve" smooth="yes"/>
      <point x="201" y="456"/>
      <point x="176" y="414"/>
      <point x="176" y="368" type="curve" smooth="yes"/>
      <point x="176" y="337"/>
      <point x="187" y="297"/>
      <point x="217" y="271" type="curve"/>
      <point x="182" y="256"/>
      <point x="132" y="216"/>
      <point x="95" y="168" type="curve" smooth="yes"/>
      <point x="81" y="150"/>
      <point x="69" y="139"/>
      <point x="46" y="139" type="curve" smooth="yes"/>
      <point x="-11" y="139" type="line" smooth="yes"/>
      <point x="-63" y="139"/>
      <point x="-81" y="102"/>
      <point x="-81" y="67" type="curve" smooth="yes"/>
      <point x="-81" y="30"/>
      <point x="-61" y="0"/>
      <point x="-11" y="0" type="curve" smooth="yes"/>
      <point x="19" y="0" type="line" smooth="yes"/>
      <point x="58" y="0"/>
      <point x="86" y="15"/>
      <point x="102" y="45" type="curve"/>
      <point x="154" y="15"/>
      <point x="193" y="-5"/>
      <point x="251" y="-11" type="curve"/>
      <point x="286" y="18"/>
      <point x="308" y="58"/>
      <point x="308" y="101" type="curve" smooth="yes"/>
      <point x="308" y="125"/>
      <point x="301" y="158"/>
      <point x="270" y="187" type="curve"/>
      <point x="329" y="230"/>
      <point x="389" y="248"/>
      <point x="485" y="271" type="curve"/>
      <point x="504" y="306"/>
      <point x="515" y="342"/>
      <point x="525" y="377" type="curve"/>
    </contour>
    <contour>
      <point x="211" y="98"/>
      <point x="179" y="107"/>
      <point x="141" y="133" type="curve"/>
      <point x="152" y="147"/>
      <point x="166" y="157"/>
      <point x="187" y="157" type="curve" smooth="yes"/>
      <point x="237" y="157"/>
      <point x="249" y="102"/>
      <point x="249" y="90" type="curve"/>
    </contour>
    <contour>
      <point x="283" y="0" type="move" name="caret_1"/>
    </contour>
    <contour>
      <point x="336" y="-29" type="move" name="bottom_1"/>
    </contour>
    <contour>
      <point x="353" y="568" type="move" name="top_1"/>
    </contour>
    <contour>
      <point x="94" y="450" type="move" name="top_2"/>
    </contour>
    <contour>
      <point x="72" y="-29" type="move" name="bottom_2"/>
    </contour>
  </outline>
</glyph>
<glyph name="sad_alefMaksura-ar" format="1">
  <advance width="1167"/>
  <unicode hex="FD05"/>
  <outline>
    <contour>
      <point x="1117" y="279"/>
      <point x="1101" y="309"/>
      <point x="1073" y="331" type="curve" smooth="yes"/>
      <point x="1047" y="351"/>
      <point x="1015" y="362"/>
      <point x="987" y="362" type="curve" smooth="yes"/>
      <point x="927" y="362"/>
      <point x="862" y="311"/>
      <point x="806" y="251" type="curve" smooth="yes"/>
      <point x="761" y="202"/>
      <point x="739" y="170"/>
      <point x="718" y="139" type="curve"/>
      <point x="668" y="139"/>
      <point x="644" y="157"/>
      <point x="625" y="179" type="curve" smooth="yes"/>
      <point x="599" y="210"/>
      <point x="584" y="247"/>
      <point x="525" y="247" type="curve" smooth="yes"/>
      <point x="489" y="247"/>
      <point x="459" y="226"/>
      <point x="428" y="178" type="curve" smooth="yes"/>
      <point x="418" y="163"/>
      <point x="397" y="127"/>
      <point x="385" y="96" type="curve" smooth="yes"/>
      <point x="372" y="63"/>
      <point x="363" y="22"/>
      <point x="376" y="-5" type="curve" smooth="yes"/>
      <point x="385" y="-25"/>
      <point x="411" y="-43"/>
      <point x="450" y="-54" type="curve" smooth="yes"/>
      <point x="476" y="-61"/>
      <point x="504" y="-65"/>
      <point x="524" y="-67" type="curve"/>
      <point x="524" y="-92"/>
      <point x="478" y="-110"/>
      <point x="423" y="-120" type="curve" smooth="yes"/>
      <point x="388" y="-127"/>
      <point x="349" y="-130"/>
      <point x="315" y="-130" type="curve" smooth="yes"/>
      <point x="275" y="-130"/>
      <point x="238" y="-126"/>
      <point x="208" y="-115" type="curve" smooth="yes"/>
      <point x="151" y="-94"/>
      <point x="133" y="-53"/>
      <point x="133" y="-4" type="curve" smooth="yes"/>
      <point x="133" y="16"/>
      <point x="136" y="43"/>
      <point x="142" y="66" type="curve"/>
      <point x="99" y="81" type="line"/>
      <point x="78" y="30"/>
      <point x="60" y="-32"/>
      <point x="60" y="-90" type="curve" smooth="yes"/>
      <point x="60" y="-153"/>
      <point x="81" y="-196"/>
      <point x="117" y="-227" type="curve" smooth="yes"/>
      <point x="158" y="-262"/>
      <point x="219" y="-283"/>
      <point x="292" y="-283" type="curve" smooth="yes"/>
      <point x="394" y="-283"/>
      <point x="469" y="-257"/>
      <point x="530" y="-209" type="curve" smooth="yes"/>
      <point x="557" y="-188"/>
      <point x="577" y="-163"/>
      <point x="591" y="-137" type="curve" smooth="yes"/>
      <point x="607" y="-107"/>
      <point x="617" y="-74"/>
      <point x="617" y="-43" type="curve" smooth="yes"/>
      <point x="617" y="7"/>
      <point x="590" y="21"/>
      <point x="545" y="25" type="curve" smooth="yes"/>
      <point x="521" y="27"/>
      <point x="500" y="28"/>
      <point x="484" y="33" type="curve" smooth="yes"/>
      <point x="465" y="39"/>
      <point x="454" y="51"/>
      <point x="454" y="68" type="curve" smooth="yes"/>
      <point x="454" y="93"/>
      <point x="477" y="116"/>
      <point x="515" y="116" type="curve" smooth="yes"/>
      <point x="526" y="116"/>
      <point x="562" y="114"/>
      <point x="595" y="82" type="curve" smooth="yes"/>
      <point x="617" y="60"/>
      <point x="645" y="31"/>
      <point x="678" y="19" type="curve"/>
      <point x="671" y="-13" type="line"/>
      <point x="730" y="-13" type="line"/>
      <point x="736" y="10" type="line"/>
      <point x="764" y="6"/>
      <point x="798" y="4"/>
      <point x="828" y="6" type="curve" smooth="yes"/>
      <point x="898" y="11"/>
      <point x="972" y="42"/>
      <point x="1017" y="76" type="curve" smooth="yes"/>
      <point x="1046" y="98"/>
      <point x="1071" y="126"/>
      <point x="1088" y="154" type="curve" smooth="yes"/>
      <point x="1107" y="186"/>
      <point x="1117" y="220"/>
      <point x="1117" y="246" type="curve" smooth="yes"/>
    </contour>
    <contour>
      <point x="1015" y="183"/>
      <point x="1001" y="170"/>
      <point x="977" y="159" type="curve" smooth="yes"/>
      <point x="948" y="146"/>
      <point x="916" y="139"/>
      <point x="881" y="139" type="curve" smooth="yes"/>
      <point x="792" y="139" type="line"/>
      <point x="803" y="154"/>
      <point x="818" y="174"/>
      <point x="837" y="193" type="curve" smooth="yes"/>
      <point x="867" y="224"/>
      <point x="900" y="249"/>
      <point x="945" y="249" type="curve" smooth="yes"/>
      <point x="972" y="249"/>
      <point x="988" y="240"/>
      <point x="1000" y="229" type="curve"/>
      <point x="1013" y="216"/>
      <point x="1020" y="199"/>
      <point x="1023" y="191" type="curve"/>
    </contour>
    <contour>
      <point x="584" y="0" type="move" name="caret_1"/>
    </contour>
    <contour>
      <point x="854" y="-29" type="move" name="bottom_1"/>
    </contour>
    <contour>
      <point x="967" y="392" type="move" name="top_1"/>
    </contour>
    <contour>
      <point x="234" y="85" type="move" name="top_2"/>
    </contour>
    <contour>
      <point x="302" y="-313" type="move" name="bottom_2"/>
    </contour>
  </outline>
</glyph>
<glyph name="ain_alefMaksura-ar.fina" format="1">
  <advance width="884"/>
  <unicode hex="FD13"/>
  <outline>
    <contour>
      <point x="774" y="139" type="line" smooth="yes"/>
      <point x="759" y="139"/>
      <point x="731" y="134"/>
      <point x="716" y="127" type="curve"/>
      <point x="737" y="141"/>
      <point x="775" y="188"/>
      <point x="775" y="222" type="curve" smooth="yes"/>
      <point x="775" y="262"/>
      <point x="740" y="304"/>
      <point x="641" y="304" type="curve" smooth="yes"/>
      <point x="602" y="304"/>
      <point x="563" y="292"/>
      <point x="529" y="271" type="curve"/>
      <point x="519" y="243"/>
      <point x="511" y="213"/>
      <point x="508" y="178" type="curve"/>
      <point x="523" y="178"/>
      <point x="559" y="170"/>
      <point x="579" y="143" type="curve"/>
      <point x="555" y="127"/>
      <point x="517" y="116"/>
      <point x="500" y="110" type="curve" smooth="yes"/>
      <point x="484" y="104"/>
      <point x="469" y="98"/>
      <point x="460" y="92" type="curve" smooth="yes"/>
      <point x="432" y="73"/>
      <point x="430" y="44"/>
      <point x="423" y="-1" type="curve"/>
      <point x="423" y="-1"/>
      <point x="454" y="-7"/>
      <point x="480" y="-14" type="curve" smooth="yes"/>
      <point x="511" y="-23"/>
      <point x="543" y="-36"/>
      <point x="543" y="-52" type="curve" smooth="yes"/>
      <point x="543" y="-81"/>
      <point x="493" y="-105"/>
      <point x="428" y="-119" type="curve" smooth="yes"/>
      <point x="389" y="-127"/>
      <point x="344" y="-132"/>
      <point x="301" y="-132" type="curve" smooth="yes"/>
      <point x="232" y="-132"/>
      <point x="184" y="-113"/>
      <point x="159" y="-83" type="curve" smooth="yes"/>
      <point x="129" y="-48"/>
      <point x="130" y="13"/>
      <point x="142" y="64" type="curve"/>
      <point x="99" y="79" type="line"/>
      <point x="79" y="32"/>
      <point x="65" y="-15"/>
      <point x="61" y="-62" type="curve" smooth="yes"/>
      <point x="58" y="-96"/>
      <point x="61" y="-132"/>
      <point x="75" y="-166" type="curve" smooth="yes"/>
      <point x="90" y="-203"/>
      <point x="116" y="-232"/>
      <point x="155" y="-253" type="curve" smooth="yes"/>
      <point x="192" y="-273"/>
      <point x="239" y="-284"/>
      <point x="291" y="-284" type="curve" smooth="yes"/>
      <point x="370" y="-284"/>
      <point x="431" y="-268"/>
      <point x="487" y="-239" type="curve" smooth="yes"/>
      <point x="528" y="-218"/>
      <point x="561" y="-189"/>
      <point x="584" y="-156" type="curve"/>
      <point x="604" y="-125"/>
      <point x="616" y="-90"/>
      <point x="616" y="-54" type="curve" smooth="yes"/>
      <point x="616" y="-7"/>
      <point x="597" y="20"/>
      <point x="563" y="35" type="curve"/>
      <point x="587" y="47"/>
      <point x="616" y="62"/>
      <point x="640" y="83" type="curve"/>
      <point x="649" y="66"/>
      <point x="662" y="50"/>
      <point x="677" y="38" type="curve"/>
      <point x="704" y="14"/>
      <point x="741" y="0"/>
      <point x="780" y="0" type="curve" smooth="yes"/>
      <point x="884" y="0" type="line"/>
      <point x="884" y="139" type="line"/>
    </contour>
    <contour>
      <point x="427" y="0" type="move" name="caret_1"/>
    </contour>
    <contour>
      <point x="604" y="-250" type="move" name="bottom_1"/>
    </contour>
    <contour>
      <point x="631" y="334" type="move" name="top_1"/>
    </contour>
    <contour>
      <point x="265" y="56" type="move" name="top_2"/>
    </contour>
    <contour>
      <point x="301" y="-314" type="move" name="bottom_2"/>
    </contour>
  </outline>
</glyph>
<glyph name="hah_alefMaksura-ar.fina" format="1">
  <advance width="1027"/>
  <unicode hex="FD1B"/>
  <outline>
    <contour>
      <point x="891" y="139" type="line" smooth="yes"/>
      <point x="874" y="139"/>
      <point x="829" y="139"/>
      <point x="817" y="160" type="curve"/>
      <point x="835" y="163"/>
      <point x="853" y="164"/>
      <point x="871" y="164" type="curve"/>
      <point x="887" y="193"/>
      <point x="899" y="218"/>
      <point x="912" y="257" type="curve"/>
      <point x="790" y="253"/>
      <point x="745" y="262"/>
      <point x="642" y="306" type="curve" smooth="yes"/>
      <point x="610" y="320"/>
      <point x="583" y="332"/>
      <point x="552" y="332" type="curve" smooth="yes"/>
      <point x="519" y="332"/>
      <point x="492" y="317"/>
      <point x="466" y="294" type="curve" smooth="yes"/>
      <point x="441" y="271"/>
      <point x="430" y="240"/>
      <point x="413" y="192" type="curve"/>
      <point x="447" y="161" type="line"/>
      <point x="461" y="189"/>
      <point x="488" y="216"/>
      <point x="516" y="216" type="curve"/>
      <point x="532" y="218"/>
      <point x="556" y="214"/>
      <point x="582" y="207" type="curve" smooth="yes"/>
      <point x="602" y="202"/>
      <point x="624" y="195"/>
      <point x="646" y="188" type="curve"/>
      <point x="603" y="173"/>
      <point x="564" y="157"/>
      <point x="533" y="142" type="curve" smooth="yes"/>
      <point x="491" y="121"/>
      <point x="462" y="103"/>
      <point x="453" y="93" type="curve"/>
      <point x="432" y="72"/>
      <point x="427" y="59"/>
      <point x="418" y="2" type="curve"/>
      <point x="446" y="-3"/>
      <point x="455" y="-5"/>
      <point x="484" y="-12" type="curve"/>
      <point x="514" y="-21"/>
      <point x="543" y="-34"/>
      <point x="543" y="-49" type="curve" smooth="yes"/>
      <point x="543" y="-74"/>
      <point x="503" y="-94"/>
      <point x="451" y="-108" type="curve" smooth="yes"/>
      <point x="404" y="-121"/>
      <point x="348" y="-128"/>
      <point x="303" y="-128" type="curve" smooth="yes"/>
      <point x="234" y="-128"/>
      <point x="185" y="-114"/>
      <point x="159" y="-80" type="curve" smooth="yes"/>
      <point x="130" y="-44"/>
      <point x="129" y="10"/>
      <point x="142" y="67" type="curve"/>
      <point x="99" y="82" type="line"/>
      <point x="78" y="33"/>
      <point x="65" y="-13"/>
      <point x="61" y="-59" type="curve" smooth="yes"/>
      <point x="58" y="-93"/>
      <point x="61" y="-129"/>
      <point x="75" y="-163" type="curve" smooth="yes"/>
      <point x="90" y="-200"/>
      <point x="117" y="-229"/>
      <point x="154" y="-250" type="curve" smooth="yes"/>
      <point x="192" y="-270"/>
      <point x="239" y="-281"/>
      <point x="294" y="-281" type="curve" smooth="yes"/>
      <point x="362" y="-281"/>
      <point x="435" y="-265"/>
      <point x="496" y="-233" type="curve" smooth="yes"/>
      <point x="543" y="-207"/>
      <point x="582" y="-172"/>
      <point x="606" y="-126" type="curve" smooth="yes"/>
      <point x="621" y="-96"/>
      <point x="629" y="-66"/>
      <point x="630" y="-40" type="curve"/>
      <point x="630" y="12"/>
      <point x="603" y="39"/>
      <point x="546" y="60" type="curve"/>
      <point x="569" y="73"/>
      <point x="601" y="89"/>
      <point x="635" y="103" type="curve" smooth="yes"/>
      <point x="671" y="119"/>
      <point x="710" y="132"/>
      <point x="741" y="137" type="curve"/>
      <point x="747" y="99"/>
      <point x="762" y="69"/>
      <point x="778" y="50" type="curve" smooth="yes"/>
      <point x="806" y="17"/>
      <point x="848" y="0"/>
      <point x="904" y="0" type="curve" smooth="yes"/>
      <point x="1027" y="0" type="line"/>
      <point x="1027" y="139" type="line"/>
    </contour>
    <contour>
      <point x="514" y="0" type="move" name="caret_1"/>
    </contour>
    <contour>
      <point x="758" y="-29" type="move" name="bottom_1"/>
    </contour>
    <contour>
      <point x="572" y="362" type="move" name="top_1"/>
    </contour>
    <contour>
      <point x="233" y="82" type="move" name="top_2"/>
    </contour>
    <contour>
      <point x="304" y="-311" type="move" name="bottom_2"/>
    </contour>
  </outline>
</glyph>
<glyph name="parenright-ar" format="1">
  <advance width="528"/>
  <unicode hex="FD3F"/>
  <outline>
    <contour>
      <point x="473" y="288"/>
      <point x="458" y="297"/>
      <point x="402" y="306" type="curve"/>
      <point x="391" y="374"/>
      <point x="352" y="386"/>
      <point x="327" y="386" type="curve" smooth="yes"/>
      <point x="313" y="386"/>
      <point x="303" y="382"/>
      <point x="303" y="382" type="curve" smooth="yes"/>
      <point x="307" y="329"/>
      <point x="295" y="296"/>
      <point x="240" y="277" type="curve"/>
      <point x="251" y="291"/>
      <point x="266" y="313"/>
      <point x="266" y="351" type="curve" smooth="yes"/>
      <point x="266" y="428"/>
      <point x="203" y="455"/>
      <point x="215" y="477" type="curve" smooth="yes"/>
      <point x="223" y="492"/>
      <point x="253" y="483"/>
      <point x="252" y="477" type="curve" smooth="yes"/>
      <point x="251" y="469"/>
      <point x="257" y="525"/>
      <point x="217" y="534" type="curve" smooth="yes"/>
      <point x="199" y="538"/>
      <point x="183" y="531"/>
      <point x="171" y="524" type="curve"/>
      <point x="143" y="558"/>
      <point x="119" y="598"/>
      <point x="111" y="625" type="curve"/>
      <point x="117" y="624"/>
      <point x="122" y="624"/>
      <point x="127" y="624" type="curve" smooth="yes"/>
      <point x="166" y="624"/>
      <point x="186" y="653"/>
      <point x="186" y="681" type="curve" smooth="yes"/>
      <point x="186" y="713"/>
      <point x="160" y="740"/>
      <point x="128" y="740" type="curve"/>
      <point x="74" y="740"/>
      <point x="41" y="692"/>
      <point x="40" y="636" type="curve" smooth="yes"/>
      <point x="38" y="548"/>
      <point x="113" y="462"/>
      <point x="155" y="417" type="curve"/>
      <point x="153" y="410"/>
      <point x="151" y="404"/>
      <point x="156" y="392" type="curve" smooth="yes"/>
      <point x="161" y="381"/>
      <point x="165" y="377"/>
      <point x="185" y="372" type="curve" smooth="yes"/>
      <point x="201" y="368"/>
      <point x="217" y="365"/>
      <point x="213" y="341" type="curve"/>
      <point x="203" y="349"/>
      <point x="190" y="356"/>
      <point x="173" y="356" type="curve" smooth="yes"/>
      <point x="151" y="356"/>
      <point x="132" y="344"/>
      <point x="123" y="330" type="curve" smooth="yes"/>
      <point x="110" y="310"/>
      <point x="105" y="274"/>
      <point x="133" y="255" type="curve"/>
      <point x="122" y="244"/>
      <point x="114" y="232"/>
      <point x="114" y="213" type="curve" smooth="yes"/>
      <point x="114" y="180"/>
      <point x="140" y="155"/>
      <point x="173" y="155" type="curve" smooth="yes"/>
      <point x="188" y="155"/>
      <point x="202" y="160"/>
      <point x="213" y="169" type="curve"/>
      <point x="226" y="156"/>
      <point x="198" y="141"/>
      <point x="189" y="138" type="curve" smooth="yes"/>
      <point x="180" y="135"/>
      <point x="164" y="137"/>
      <point x="156" y="119" type="curve" smooth="yes"/>
      <point x="151" y="107"/>
      <point x="153" y="100"/>
      <point x="155" y="94" type="curve"/>
      <point x="118" y="54"/>
      <point x="38" y="-35"/>
      <point x="40" y="-126" type="curve" smooth="yes"/>
      <point x="41" y="-181"/>
      <point x="73" y="-227"/>
      <point x="128" y="-229" type="curve"/>
      <point x="160" y="-229"/>
      <point x="186" y="-202"/>
      <point x="186" y="-170" type="curve" smooth="yes"/>
      <point x="186" y="-142"/>
      <point x="166" y="-113"/>
      <point x="129" y="-113" type="curve" smooth="yes"/>
      <point x="122" y="-113"/>
      <point x="117" y="-114"/>
      <point x="111" y="-115" type="curve"/>
      <point x="119" y="-87"/>
      <point x="143" y="-47"/>
      <point x="171" y="-14" type="curve"/>
      <point x="183" y="-22"/>
      <point x="199" y="-28"/>
      <point x="217" y="-23" type="curve" smooth="yes"/>
      <point x="242" y="-16"/>
      <point x="251" y="5"/>
      <point x="260" y="37" type="curve"/>
      <point x="235" y="13"/>
      <point x="219" y="21"/>
      <point x="215" y="33" type="curve" smooth="yes"/>
      <point x="206" y="60"/>
      <point x="266" y="83"/>
      <point x="266" y="159" type="curve" smooth="yes"/>
      <point x="266" y="197"/>
      <point x="251" y="219"/>
      <point x="240" y="233" type="curve"/>
      <point x="294" y="215"/>
      <point x="308" y="184"/>
      <point x="303" y="128" type="curve" smooth="yes"/>
      <point x="303" y="128"/>
      <point x="313" y="125"/>
      <point x="326" y="125" type="curve" smooth="yes"/>
      <point x="352" y="125"/>
      <point x="391" y="137"/>
      <point x="402" y="204" type="curve"/>
      <point x="453" y="212"/>
      <point x="477" y="223"/>
      <point x="498" y="255" type="curve" smooth="yes"/>
    </contour>
  </outline>
</glyph>
<glyph name="hah-ar.init" format="1">
  <advance width="588"/>
  <unicode hex="FEA3"/>
  <outline>
    <contour>
      <point x="532" y="272"/>
      <point x="525" y="271"/>
      <point x="519" y="271" type="curve" smooth="yes"/>
      <point x="371" y="271"/>
      <point x="361" y="273"/>
      <point x="244" y="318" type="curve" smooth="yes"/>
      <point x="211" y="331"/>
      <point x="183" y="342"/>
      <point x="154" y="342" type="curve" smooth="yes"/>
      <point x="121" y="342"/>
      <point x="91" y="328"/>
      <point x="67" y="303" type="curve" smooth="yes"/>
      <point x="44" y="279"/>
      <point x="33" y="255"/>
      <point x="25" y="212" type="curve"/>
      <point x="54" y="185" type="line"/>
      <point x="71" y="219"/>
      <point x="93" y="231"/>
      <point x="128" y="231" type="curve" smooth="yes"/>
      <point x="147" y="231"/>
      <point x="188" y="228"/>
      <point x="285" y="185" type="curve"/>
      <point x="262" y="174"/>
      <point x="221" y="160"/>
      <point x="182" y="152" type="curve" smooth="yes"/>
      <point x="147" y="145"/>
      <point x="95" y="139"/>
      <point x="47" y="139" type="curve" smooth="yes"/>
      <point x="-10" y="139" type="line" smooth="yes"/>
      <point x="-49" y="139"/>
      <point x="-80" y="111"/>
      <point x="-80" y="69" type="curve" smooth="yes"/>
      <point x="-80" y="26"/>
      <point x="-47" y="0"/>
      <point x="-10" y="0" type="curve" smooth="yes"/>
      <point x="42" y="0" type="line" smooth="yes"/>
      <point x="159" y="0"/>
      <point x="224" y="42"/>
      <point x="273" y="74" type="curve" smooth="yes"/>
      <point x="348" y="123"/>
      <point x="375" y="139"/>
      <point x="476" y="139" type="curve"/>
      <point x="503" y="183"/>
      <point x="521" y="225"/>
      <point x="538" y="272" type="curve"/>
    </contour>
    <contour>
      <point x="204" y="372" type="move" name="top"/>
    </contour>
    <contour>
      <point x="184" y="-29" type="move" name="bottom"/>
    </contour>
  </outline>
</glyph>
<glyph name="sad-ar.medi" format="1">
  <advance width="708"/>
  <unicode hex="FEBC"/>
  <outline>
    <contour>
      <point x="590" y="139" type="line" smooth="yes"/>
      <point x="574" y="139"/>
      <point x="553" y="137"/>
      <point x="533" y="130" type="curve"/>
      <point x="539" y="138"/>
      <point x="545" y="146"/>
      <point x="550" y="154" type="curve" smooth="yes"/>
      <point x="567" y="181"/>
      <point x="579" y="220"/>
      <point x="579" y="247" type="curve" smooth="yes"/>
      <point x="579" y="279"/>
      <point x="561" y="310"/>
      <point x="535" y="331" type="curve" smooth="yes"/>
      <point x="510" y="351"/>
      <point x="478" y="361"/>
      <point x="450" y="361" type="curve" smooth="yes"/>
      <point x="421" y="361"/>
      <point x="391" y="351"/>
      <point x="355" y="328" type="curve" smooth="yes"/>
      <point x="324" y="308"/>
      <point x="293" y="279"/>
      <point x="268" y="252" type="curve" smooth="yes"/>
      <point x="222" y="202"/>
      <point x="191" y="155"/>
      <point x="180" y="139" type="curve"/>
      <point x="169" y="140"/>
      <point x="160" y="143"/>
      <point x="154" y="150" type="curve" smooth="yes"/>
      <point x="138" y="168"/>
      <point x="142" y="207"/>
      <point x="149" y="244" type="curve"/>
      <point x="98" y="225" type="line"/>
      <point x="89" y="186"/>
      <point x="84" y="175"/>
      <point x="76" y="164" type="curve" smooth="yes"/>
      <point x="64" y="147"/>
      <point x="49" y="139"/>
      <point x="28" y="139" type="curve" smooth="yes"/>
      <point x="-11" y="139" type="line" smooth="yes"/>
      <point x="-46" y="139"/>
      <point x="-80" y="121"/>
      <point x="-80" y="69" type="curve" smooth="yes"/>
      <point x="-80" y="14"/>
      <point x="-43" y="0"/>
      <point x="-11" y="0" type="curve" smooth="yes"/>
      <point x="27" y="0" type="line" smooth="yes"/>
      <point x="72" y="0"/>
      <point x="105" y="16"/>
      <point x="122" y="45" type="curve"/>
      <point x="127" y="40"/>
      <point x="132" y="36"/>
      <point x="144" y="31" type="curve"/>
      <point x="132" y="-17" type="line"/>
      <point x="192" y="-17" type="line"/>
      <point x="199" y="8" type="line"/>
      <point x="222" y="4"/>
      <point x="244" y="4"/>
      <point x="270" y="4" type="curve" smooth="yes"/>
      <point x="278" y="4"/>
      <point x="447" y="4"/>
      <point x="447" y="4" type="curve" smooth="yes"/>
      <point x="565" y="0"/>
      <point x="558" y="0"/>
      <point x="578" y="0" type="curve" smooth="yes"/>
      <point x="708" y="0" type="line"/>
      <point x="708" y="139" type="line"/>
    </contour>
    <contour>
      <point x="474" y="180"/>
      <point x="462" y="170"/>
      <point x="438" y="159" type="curve" smooth="yes"/>
      <point x="410" y="146"/>
      <point x="378" y="139"/>
      <point x="343" y="139" type="curve" smooth="yes"/>
      <point x="254" y="139" type="line"/>
      <point x="256" y="141"/>
      <point x="279" y="173"/>
      <point x="298" y="193" type="curve" smooth="yes"/>
      <point x="326" y="222"/>
      <point x="362" y="249"/>
      <point x="407" y="249" type="curve" smooth="yes"/>
      <point x="461" y="249"/>
      <point x="479" y="206"/>
      <point x="484" y="191" type="curve"/>
    </contour>
    <contour>
      <point x="430" y="391" type="move" name="top"/>
    </contour>
    <contour>
      <point x="339" y="-30" type="move" name="bottom"/>
    </contour>
  </outline>
</glyph>
<glyph name="lam-ar.fina" format="1">
  <advance width="649"/>
  <unicode hex="FEDE"/>
  <outline>
    <contour>
      <point x="571" y="139" type="line" smooth="yes"/>
      <point x="553" y="139"/>
      <point x="537" y="143"/>
      <point x="525" y="158" type="curve" smooth="yes"/>
      <point x="513" y="172"/>
      <point x="511" y="190"/>
      <point x="510" y="200" type="curve" smooth="yes"/>
      <point x="505" y="250"/>
      <point x="505" y="243"/>
      <point x="469" y="626" type="curve"/>
      <point x="445" y="604"/>
      <point x="412" y="558"/>
      <point x="374" y="501" type="curve" smooth="yes"/>
      <point x="374" y="501"/>
      <point x="447" y="-1"/>
      <point x="448" y="-10" type="curve" smooth="yes"/>
      <point x="455" y="-58"/>
      <point x="452" y="-82"/>
      <point x="419" y="-103" type="curve" smooth="yes"/>
      <point x="392" y="-120"/>
      <point x="352" y="-129"/>
      <point x="298" y="-129" type="curve" smooth="yes"/>
      <point x="262" y="-129"/>
      <point x="238" y="-125"/>
      <point x="213" y="-116" type="curve" smooth="yes"/>
      <point x="189" y="-108"/>
      <point x="171" y="-96"/>
      <point x="158" y="-80" type="curve" smooth="yes"/>
      <point x="135" y="-51"/>
      <point x="128" y="-14"/>
      <point x="142" y="55" type="curve"/>
      <point x="99" y="70" type="line"/>
      <point x="78" y="18"/>
      <point x="64" y="-24"/>
      <point x="61" y="-67" type="curve" smooth="yes"/>
      <point x="59" y="-96"/>
      <point x="60" y="-129"/>
      <point x="75" y="-165" type="curve" smooth="yes"/>
      <point x="90" y="-201"/>
      <point x="114" y="-231"/>
      <point x="157" y="-253" type="curve" smooth="yes"/>
      <point x="194" y="-273"/>
      <point x="241" y="-283"/>
      <point x="295" y="-283" type="curve" smooth="yes"/>
      <point x="370" y="-283"/>
      <point x="429" y="-260"/>
      <point x="470" y="-216" type="curve" smooth="yes"/>
      <point x="495" y="-188"/>
      <point x="513" y="-151"/>
      <point x="521" y="-116" type="curve" smooth="yes"/>
      <point x="526" y="-94"/>
      <point x="530" y="-65"/>
      <point x="530" y="-40" type="curve" smooth="yes"/>
      <point x="530" y="-28"/>
      <point x="529" y="-3"/>
      <point x="527" y="23" type="curve"/>
      <point x="542" y="8"/>
      <point x="570" y="0"/>
      <point x="595" y="0" type="curve" smooth="yes"/>
      <point x="649" y="0" type="line"/>
      <point x="649" y="139" type="line"/>
    </contour>
    <contour>
      <point x="346" y="601" type="move" name="top"/>
    </contour>
    <contour>
      <point x="295" y="-313" type="move" name="bottom"/>
    </contour>
  </outline>
</glyph>
<glyph name="lam_alef-ar" format="1">
  <advance width="495"/>
  <unicode hex="FEFB"/>
  <outline>
    <contour>
      <point x="434" y="503"/>
      <point x="410" y="547"/>
      <point x="392" y="608" type="curve"/>
      <point x="368" y="576"/>
      <point x="345" y="553"/>
      <point x="312" y="528" type="curve"/>
      <point x="320" y="498"/>
      <point x="329" y="461"/>
      <point x="330" y="419" type="curve" smooth="yes"/>
      <point x="331" y="385"/>
      <point x="327" y="346"/>
      <point x="313" y="305" type="curve"/>
      <point x="287" y="345"/>
      <point x="244" y="399"/>
      <point x="199" y="449" type="curve" smooth="yes"/>
      <point x="171" y="479"/>
      <point x="146" y="504"/>
      <point x="124" y="522" type="curve" smooth="yes"/>
      <point x="89" y="552"/>
      <point x="74" y="555"/>
      <point x="65" y="555" type="curve" smooth="yes"/>
      <point x="61" y="555"/>
      <point x="49" y="554"/>
      <point x="41" y="536" type="curve" smooth="yes"/>
      <point x="32" y="516"/>
      <point x="26" y="481"/>
      <point x="20" y="441" type="curve" smooth="yes"/>
      <point x="51" y="416"/>
      <point x="93" y="385"/>
      <point x="118" y="371" type="curve"/>
      <point x="130" y="390" type="line"/>
      <point x="199" y="326"/>
      <point x="242" y="266"/>
      <point x="273" y="219" type="curve"/>
      <point x="263" y="206"/>
      <point x="198" y="138"/>
      <point x="156" y="136" type="curve"/>
      <point x="133" y="134" type="line"/>
      <point x="127" y="85"/>
      <point x="125" y="44"/>
      <point x="126" y="-6" type="curve"/>
      <point x="228" y="-6"/>
      <point x="319" y="1"/>
      <point x="394" y="21" type="curve"/>
      <point x="396" y="39"/>
      <point x="401" y="79"/>
      <point x="402" y="85" type="curve" smooth="yes"/>
      <point x="406" y="124"/>
      <point x="394" y="167"/>
      <point x="362" y="223" type="curve"/>
      <point x="396" y="276"/>
      <point x="414" y="333"/>
      <point x="418" y="400" type="curve"/>
      <point x="437" y="389" type="line"/>
      <point x="475" y="478" type="line"/>
    </contour>
    <contour>
      <point x="302" y="136"/>
      <point x="270" y="134"/>
      <point x="241" y="133" type="curve"/>
      <point x="264" y="146"/>
      <point x="286" y="161"/>
      <point x="310" y="182" type="curve"/>
      <point x="322" y="167"/>
      <point x="330" y="150"/>
      <point x="336" y="139" type="curve"/>
    </contour>
    <contour>
      <point x="243" y="-19" type="move" name="caret_1"/>
    </contour>
    <contour>
      <point x="377" y="-38" type="move" name="bottom_1"/>
    </contour>
    <contour>
      <point x="309" y="596" type="move" name="top_1"/>
    </contour>
    <contour>
      <point x="6" y="565" type="move" name="top_2"/>
    </contour>
    <contour>
      <point x="139" y="-56" type="move" name="bottom_2"/>
    </contour>
  </outline>
</glyph>
<glyph name="threedotsupcenter-ar" format="1">
  <advance width="0"/>
  <outline>
    <contour>
      <point x="47" y="262"/>
      <point x="23" y="237"/>
      <point x="4" y="218" type="curve"/>
      <point x="-10" y="239"/>
      <point x="-33" y="259"/>
      <point x="-56" y="271" type="curve"/>
      <point x="-65" y="259"/>
      <point x="-102" y="221"/>
      <point x="-120" y="206" type="curve"/>
      <point x="-92" y="185"/>
      <point x="-67" y="159"/>
      <point x="-51" y="139" type="curve"/>
      <point x="-33" y="152"/>
      <point x="-7" y="178"/>
      <point x="6" y="194" type="curve"/>
      <point x="27" y="176"/>
      <point x="46" y="155"/>
      <point x="59" y="139" type="curve"/>
      <point x="81" y="155"/>
      <point x="114" y="191"/>
      <point x="123" y="202" type="curve"/>
      <point x="112" y="226"/>
      <point x="84" y="255"/>
      <point x="54" y="271" type="curve"/>
    </contour>
    <contour>
      <point x="26" y="286"/>
      <point x="59" y="321"/>
      <point x="68" y="333" type="curve"/>
      <point x="57" y="358"/>
      <point x="29" y="387"/>
      <point x="-1" y="402" type="curve"/>
      <point x="-10" y="390"/>
      <point x="-47" y="352"/>
      <point x="-65" y="337" type="curve"/>
      <point x="-37" y="316"/>
      <point x="-12" y="290"/>
      <point x="4" y="269" type="curve"/>
    </contour>
    <contour>
      <point x="1" y="281" type="move" name="_center"/>
    </contour>
  </outline>
</glyph>
<glyph name="yehRohingya-ar.pt.fina" format="1">
  <advance width="716"/>
  <outline>
    <contour>
      <point x="555" y="139" type="line"/>
      <point x="563" y="161"/>
      <point x="566" y="184"/>
      <point x="565" y="211" type="curve" smooth="yes"/>
      <point x="562" y="293"/>
      <point x="517" y="349"/>
      <point x="465" y="349" type="curve" smooth="yes"/>
      <point x="432" y="349"/>
      <point x="397" y="327"/>
      <point x="371" y="292" type="curve" smooth="yes"/>
      <point x="346" y="258"/>
      <point x="331" y="215"/>
      <point x="329" y="183" type="curve" smooth="yes"/>
      <point x="328" y="167"/>
      <point x="330" y="152"/>
      <point x="335" y="139" type="curve"/>
      <point x="237" y="139" type="line" smooth="yes"/>
      <point x="186" y="139"/>
      <point x="144" y="124"/>
      <point x="113" y="98" type="curve" smooth="yes"/>
      <point x="79" y="69"/>
      <point x="60" y="26"/>
      <point x="60" y="-27" type="curve" smooth="yes"/>
      <point x="60" y="-97"/>
      <point x="95" y="-171"/>
      <point x="170" y="-207" type="curve"/>
      <point x="239" y="-174" type="line"/>
      <point x="181" y="-141"/>
      <point x="172" y="-102"/>
      <point x="172" y="-74" type="curve" smooth="yes"/>
      <point x="172" y="-21"/>
      <point x="210" y="0"/>
      <point x="282" y="0" type="curve" smooth="yes"/>
      <point x="380" y="0" type="line" smooth="yes"/>
      <point x="463" y="0"/>
      <point x="495" y="32"/>
      <point x="510" y="46" type="curve"/>
      <point x="515" y="31"/>
      <point x="546" y="0"/>
      <point x="603" y="0" type="curve" smooth="yes"/>
      <point x="716" y="0" type="line"/>
      <point x="716" y="139" type="line"/>
    </contour>
    <contour>
      <point x="503" y="173"/>
      <point x="473" y="150"/>
      <point x="446" y="150" type="curve" smooth="yes"/>
      <point x="414" y="150"/>
      <point x="392" y="182"/>
      <point x="389" y="192" type="curve"/>
      <point x="396" y="204"/>
      <point x="418" y="235"/>
      <point x="445" y="235" type="curve" smooth="yes"/>
      <point x="471" y="235"/>
      <point x="502" y="202"/>
      <point x="506" y="194" type="curve"/>
    </contour>
    <contour>
      <point x="465" y="369" type="move" name="top"/>
    </contour>
    <contour>
      <point x="395" y="-39" type="move" name="bottom"/>
    </contour>
  </outline>
</glyph>
